<?xml version="1.0" encoding="utf-8"?>
<!-- Generator: Adobe Illustrator 24.1.2, SVG Export Plug-In . SVG Version: 6.00 Build 0)  -->
<svg version="1.1" id="Layer_1" xmlns="http://www.w3.org/2000/svg" xmlns:xlink="http://www.w3.org/1999/xlink" x="0px" y="0px"
	 viewBox="0 0 72 72" style="enable-background:new 0 0 72 72;" xml:space="preserve">
<style type="text/css">
	.st0{display:none;}
	.st1{display:inline;fill:#FFFFFF;}
	.st2{display:inline;fill:none;stroke:#9FA1A4;stroke-miterlimit:10;}
	.st3{display:inline;fill:#CDB13F;}
	.st4{display:inline;}
	.st5{fill:#CDB13F;}
	.st6{fill:#CDB13F;stroke:#010101;stroke-width:2.407;stroke-linecap:round;stroke-miterlimit:10;}
	.st7{fill-rule:evenodd;clip-rule:evenodd;fill:#CDB13F;}
	.st8{fill:#1674B5;}
	.st9{display:inline;fill:#80C2CA;}
	.st10{fill:#80C2CA;}
</style>
<g id="Layer_8" class="st0">
	<rect x="-19.2" y="-19.5" class="st1" width="110.3" height="110.3"/>
</g>
<g id="Layer_1_1_" class="st0">
	<circle class="st2" cx="36.1" cy="35.9" r="51.9"/>
</g>
<g id="Layer_4" class="st0">
	<path class="st3" d="M63.5,35.8c-3.6,0-6.5,2.2-7.7,5.5h-9c-1-4.9-4.9-8.6-9.8-9.5V15.7c3-1,5-3.7,5-7.1C42,4.4,38.6,1,34.5,1
		s-7.6,3.4-7.6,7.6c0,3.3,2.1,6.1,5,7.1v16c-1.8,0.3-3.4,1-4.7,2.1l-8.6-8.6c3.9-6.5-0.9-14.7-8.4-14.7c-5.2,0-9.6,4.3-9.6,9.8
		c0,7.6,8.1,12.3,14.7,8.4l8.7,8.7c-1.2,1.9-1.9,4.1-1.9,6.7c0,2.5,0.7,4.7,1.9,6.7l-5.9,5.9c-5.2-2.4-10.8,1.5-10.8,7
		c0,4.3,3.4,7.7,7.7,7.7c5.5,0,9.3-5.8,7-10.8l5.9-5.9c1.9,1.2,4.3,1.9,6.7,1.9c5.9,0,11-4.1,12.1-9.8h9c1.2,3.1,4.1,5.5,7.7,5.5
		c4.4,0,8.1-3.7,8.1-8.1C71.7,39.4,68,35.8,63.5,35.8z"/>
</g>
<g id="Layer_3" class="st0">
	<path class="st3" d="M70.2,34.7l-8.6-1c-1.4-0.1-2.6-1.2-2.9-2.6c0,0,0,0,0-0.1c-0.3-1.5,0.4-3,1.6-3.7l4.2-2.3
		c0.7-0.4,0.3-1.6-0.5-1.3L59.5,25c-1.4,0.4-3-0.1-3.8-1.5c0,0,0,0,0-0.1c-0.7-1.2-0.7-2.8,0.2-4l5.4-6.8c1-1.3-0.6-2.8-1.9-1.9
		l-6.8,5.4c-1.1,0.9-2.7,1-4,0.2c0,0,0,0-0.1,0c-1.3-0.8-1.9-2.4-1.5-3.8l1.3-4.6c0.2-0.8-0.9-1.3-1.3-0.5l-2.3,4.2
		c-0.7,1.3-2.2,2-3.7,1.6c0,0,0,0-0.1,0c-1.4-0.3-2.5-1.5-2.6-2.9l-1-8.6c-0.1-1.6-2.5-1.6-2.7,0l-1,8.6c-0.1,1.4-1.2,2.6-2.6,2.9h0
		c-1.5,0.3-3-0.4-3.7-1.7l-2.3-4c-0.4-0.7-1.6-0.3-1.3,0.5l1.3,4.6c0.4,1.4-0.1,3-1.4,3.8h-0.1c-1.2,0.7-2.8,0.7-4-0.2l-6.8-5.4
		c-1.3-1-2.8,0.6-1.9,1.9l5.4,6.8c0.9,1.1,1,2.7,0.2,4c0,0,0,0,0,0.1c-0.8,1.3-2.4,1.9-3.8,1.5L8,23.8c-0.8-0.2-1.3,0.9-0.5,1.3
		l4.2,2.3c1.3,0.7,2,2.2,1.6,3.7c0,0,0,0,0,0.1c-0.3,1.4-1.5,2.5-2.9,2.6l-8.7,1c-1.6,0.1-1.6,2.5,0,2.7l8.6,1
		c1.4,0.1,2.6,1.2,2.9,2.6c0,0,0,0,0,0.1c0.3,1.5-0.4,3-1.6,3.7l-4.2,2.3c-0.7,0.4-0.3,1.6,0.5,1.3l4.6-1.3c1.4-0.4,3,0.1,3.8,1.5
		c0,0,0,0,0,0.1c0.7,1.2,0.7,2.8-0.2,4l-5.4,6.8c-1,1.3,0.6,2.8,1.9,1.9l6.8-5.4c1.1-0.9,2.7-1,4-0.2c0,0,0,0,0.1,0
		c1.3,0.8,1.9,2.4,1.5,3.8l-1.3,4.6c-0.2,0.8,0.9,1.3,1.3,0.5l2.3-4.2c0.7-1.3,2.2-2,3.7-1.6c0,0,0,0,0.1,0c1.4,0.3,2.5,1.5,2.6,2.9
		l1,8.6c0.1,1.6,2.5,1.6,2.7,0l1-8.6c0.1-1.4,1.2-2.6,2.6-2.9c0,0,0,0,0.1,0c1.5-0.3,3,0.4,3.7,1.6l2.3,4.2c0.4,0.7,1.6,0.3,1.3-0.5
		L47,59.5c-0.4-1.4,0.1-3,1.5-3.8c0,0,0,0,0.1,0c1.2-0.7,2.8-0.7,4,0.2l6.8,5.4c1.3,1,2.8-0.6,1.9-1.9l-5.4-6.8
		c-0.9-1.1-1-2.7-0.2-4c0,0,0,0,0-0.1c0.8-1.3,2.4-1.9,3.8-1.5l4.6,1.3c0.8,0.2,1.3-0.9,0.5-1.3l-4.2-2.3c-1.3-0.7-2-2.2-1.6-3.7
		c0,0,0,0,0-0.1c0.3-1.4,1.5-2.5,2.9-2.6l8.6-1C71.8,37.2,71.8,35,70.2,34.7z M24.6,46.9c-1.6,0-3-1.3-3-3c0-1.6,1.3-3,3-3
		s3,1.3,3,3C27.6,45.5,26.3,46.9,24.6,46.9z M29.1,34.4c-1,0.6-2.1,0.9-3.2,0.9c-0.5,0-1-0.1-1.5-0.1c-1.6-0.4-3-1.4-3.8-2.8
		c-0.3-0.5-0.1-1.3,0.4-1.6c0.5-0.3,1.3-0.1,1.6,0.4c0.5,0.9,1.3,1.5,2.4,1.7c1,0.2,2,0.1,2.9-0.4c0.5-0.3,1.3-0.1,1.6,0.4
		C29.8,33.3,29.7,34.1,29.1,34.4z M28.5,27.2c-1.6,0-3-1.3-3-3s1.3-3,3-3s3,1.3,3,3S30.1,27.2,28.5,27.2z M48.8,25.3
		c1.6,0,3,1.3,3,3c0,1.6-1.3,3-3,3s-3-1.3-3-3C45.9,26.7,47.1,25.3,48.8,25.3z M37.9,53.6c-0.2,0.4-0.6,0.6-1,0.6
		c-0.1,0-0.4-0.1-0.5-0.1c-3-1.6-4.2-5.3-2.6-8.3c0.3-0.6,1-0.8,1.6-0.5s0.8,1,0.5,1.6c-1,1.9-0.2,4.2,1.6,5.2
		C38,52.3,38.2,53,37.9,53.6z M36.9,39.8c-1.6,0-3-1.3-3-3c0-1.6,1.3-3,3-3c1.6,0,3,1.3,3,3C39.8,38.5,38.5,39.8,36.9,39.8z
		 M42.1,21.6c-2,0.7-3,3-2.2,4.9c0.2,0.6-0.1,1.3-0.7,1.5c-0.1,0.1-0.3,0.1-0.4,0.1c-0.4,0-0.9-0.3-1-0.7c-1.2-3.2,0.4-6.7,3.7-7.9
		c0.6-0.2,1.3,0.1,1.5,0.7C43,20.7,42.7,21.4,42.1,21.6z M45.4,50.1c-1.6,0-3-1.3-3-3s1.3-3,3-3c1.6,0,3,1.3,3,3
		C48.3,48.8,46.9,50.1,45.4,50.1z M53,41.1c-0.1,0.1-0.3,0.1-0.5,0.1c-0.4,0-0.8-0.2-1-0.7c-0.9-1.9-3.2-2.8-5.1-1.8
		c-0.6,0.3-1.3,0-1.6-0.5c-0.3-0.6,0-1.3,0.5-1.6c3.1-1.5,6.7-0.1,8.2,2.9C53.8,40.2,53.5,40.8,53,41.1z"/>
</g>
<g id="Layer_5" class="st0">
	<g class="st4">
		<path class="st5" d="M32.1,5.5c1-1.1,2-2.2,3-3.3c-0.6-0.7-1.1-1.5-2-1.8c-0.7-0.2-1.4,0-1.9,0.3c-0.7,0.5-1,1.4-0.9,2.1
			C30.5,3.9,31.4,4.7,32.1,5.5z"/>
		<path class="st5" d="M39.9,64.2C39,65.3,38,66.5,37,67.6c0.9,1.1,2,2.1,3,3.2c0.9,0.9,2.3,0.9,3.2,0.1c0.9-0.9,0.9-2.3,0.1-3.2
			C42.2,66.6,41,65.4,39.9,64.2z"/>
		<path class="st5" d="M39.8,61.9C61.1,34.6,49.7,18.7,40,7.8c-1,1.1-2,2.2-3,3.3c1.1,1.3,2.2,2.6,3.2,3.8h-8.4
			c2.4-3.1,5.1-5.9,7.7-8.8c1-1.1,2.7-2.5,2.3-4.2c-0.3-1.4-1.8-2-3.1-1.5c-0.7,0.3-1,0.9-1.5,1.5c-0.7,0.8-1.4,1.5-2,2.3
			c-1.3,1.4-2.6,2.7-3.8,4.2c-2.4,2.6-4.6,5.5-6.5,8.5c-2.1,3.4-3.7,7.2-4.4,11.1c-0.9,4.7-0.4,9.5,0.9,14c2,7.3,6.1,13.9,10.8,19.8
			c1-1.2,2-2.4,2.9-3.5c-1.5-1.9-2.7-3.8-3.8-5.5h9.6c-2.7,4.4-6.1,8.4-9.5,12.3c-0.9,0.9-1.8,1.9-2.6,2.8c-0.7,0.8-0.8,2-0.1,2.8
			c0.6,0.9,1.8,1.1,2.7,0.7c1-0.5,2-1.8,2.7-2.7C36.1,66.5,38.1,64.2,39.8,61.9z M24.7,30.5h22.6c0.3,2.1,0.2,4.3-0.2,6.7H24.9
			C24.5,34.8,24.5,32.6,24.7,30.5z M43.4,19.4c1.3,2,2.3,4.3,3.1,6.7H25.7c0.8-2.4,1.8-4.6,3.1-6.7L43.4,19.4z M28.7,48.3
			c-1.2-2.3-2.1-4.5-2.7-6.7h20.2c-0.7,2.1-1.5,4.4-2.7,6.7H28.7z"/>
	</g>
</g>
<g id="Layer_6" class="st0">
	<g class="st4">
		<g>
			<g>
				<g>
					<g>
						<path class="st5" d="M71.2,22c0,2.7-1.5,4.9-3.4,4.9H16.6c1.9,0,3.4-2.2,3.4-4.9s-1.5-4.9-3.4-4.9h51.2
							C69.7,17.1,71.2,19.3,71.2,22z"/>
					</g>
					<g>
						<path class="st5" d="M67.8,27H16.6v-0.4c1.7,0,3.2-2.1,3.2-4.7s-1.4-4.7-3.2-4.7v-0.4h51.2c2,0,3.5,2.3,3.5,5
							C71.4,24.7,69.8,27,67.8,27z M18,26.6h49.9c1.7,0,3.2-2.1,3.2-4.7s-1.4-4.7-3.2-4.7H18c1.3,0.8,2.2,2.6,2.2,4.7
							S19.3,25.9,18,26.6z"/>
					</g>
				</g>
				<g>
					<g>
						<g>
							<path class="st5" d="M16.6,18.6c0.9,0,1.9,1.4,1.9,3.4s-1,3.4-1.9,3.4S14.7,24,14.7,22S15.7,18.6,16.6,18.6 M16.6,17.1
								c-1.9,0-3.4,2.2-3.4,4.9s1.5,4.9,3.4,4.9S20,24.7,20,22S18.5,17.1,16.6,17.1L16.6,17.1z"/>
						</g>
					</g>
					<g>
						<g>
							<path class="st5" d="M16.6,27c-2,0-3.5-2.3-3.5-5c0-2.8,1.6-5,3.5-5c2,0,3.5,2.3,3.5,5C20.2,24.7,18.6,27,16.6,27z
								 M16.6,17.3c-1.8,0-3.2,2.1-3.2,4.7s1.4,4.7,3.2,4.7c1.7,0,3.2-2.1,3.2-4.7C19.8,19.4,18.4,17.3,16.6,17.3z"/>
						</g>
					</g>
				</g>
			</g>
			<g>
				<g>
					<g>
						<path class="st5" d="M71.2,60.9c0,2.7-1.5,4.9-3.4,4.9H16.6c1.9,0,3.4-2.2,3.4-4.9S18.5,56,16.6,56h51.2
							C69.7,56.1,71.2,58.3,71.2,60.9z"/>
					</g>
					<g>
						<path class="st5" d="M67.8,66H16.6v-0.4c1.7,0,3.2-2.1,3.2-4.7c0-2.6-1.4-4.7-3.2-4.7v-0.4h51.2c2,0,3.5,2.3,3.5,5
							C71.4,63.7,69.8,66,67.8,66z M18,65.6h49.9c1.7,0,3.2-2.1,3.2-4.7c0-2.6-1.4-4.7-3.2-4.7H18c1.3,0.8,2.2,2.6,2.2,4.7
							S19.3,64.9,18,65.6z"/>
					</g>
				</g>
				<g>
					<g>
						<g>
							<path class="st5" d="M16.6,57.6c0.9,0,1.9,1.4,1.9,3.4s-1,3.4-1.9,3.4S14.7,63,14.7,61S15.7,57.6,16.6,57.6 M16.6,56.1
								c-1.9,0-3.4,2.2-3.4,4.9s1.5,4.9,3.4,4.9S20,63.7,20,61S18.5,56.1,16.6,56.1L16.6,56.1z"/>
						</g>
					</g>
					<g>
						<g>
							<path class="st5" d="M16.6,66c-2,0-3.5-2.3-3.5-5c0-2.8,1.6-5,3.5-5c2,0,3.5,2.3,3.5,5C20.2,63.7,18.6,66,16.6,66z
								 M16.6,56.3c-1.8,0-3.2,2.1-3.2,4.7s1.4,4.7,3.2,4.7c1.7,0,3.2-2.1,3.2-4.7C19.8,58.4,18.4,56.3,16.6,56.3z"/>
						</g>
					</g>
				</g>
			</g>
			<g>
				<g>
					<g>
						<path class="st5" d="M58.5,10.6c0,2.7-1.5,4.9-3.4,4.9H3.9c1.9,0,3.4-2.2,3.4-4.9S5.8,5.7,3.9,5.7h51.2
							C57,5.8,58.5,8,58.5,10.6z"/>
					</g>
					<g>
						<path class="st5" d="M55.2,15.7H3.9v-0.4c1.7,0,3.2-2.1,3.2-4.7S5.7,6,3.9,6V5.6h51.2c2,0,3.5,2.3,3.5,5
							C58.7,13.4,57.1,15.7,55.2,15.7z M5.3,15.3h49.9c1.8,0,3.2-2.1,3.2-4.7S56.9,6,55.2,6H5.3c1.3,0.8,2.2,2.6,2.2,4.7
							S6.6,14.6,5.3,15.3z"/>
					</g>
				</g>
				<g>
					<g>
						<g>
							<path class="st5" d="M3.9,7.3c0.9,0,1.9,1.4,1.9,3.4S4.8,14,3.9,14S2,12.6,2,10.6C2.1,8.7,3.1,7.3,3.9,7.3 M3.9,5.8
								C2,5.8,0.5,8,0.5,10.7s1.5,4.9,3.4,4.9s3.4-2.2,3.4-4.9S5.8,5.8,3.9,5.8L3.9,5.8z"/>
						</g>
					</g>
					<g>
						<g>
							<path class="st5" d="M3.9,15.7c-2,0-3.5-2.3-3.5-5c0-2.8,1.6-5,3.5-5c2,0,3.5,2.3,3.5,5C7.5,13.4,5.9,15.7,3.9,15.7z M3.9,6
								c-1.8,0-3.2,2.1-3.2,4.7s1.4,4.7,3.2,4.7c1.7,0,3.2-2.1,3.2-4.7S5.7,6,3.9,6z"/>
						</g>
					</g>
				</g>
			</g>
			<g>
				<g>
					<g>
						<path class="st5" d="M58.5,49.6c0,2.7-1.5,4.9-3.4,4.9H3.9c1.9,0,3.4-2.2,3.4-4.9s-1.5-4.9-3.4-4.9h51.2
							C57,44.8,58.5,46.9,58.5,49.6z"/>
					</g>
					<g>
						<path class="st5" d="M55.2,54.7H3.9v-0.4c1.7,0,3.2-2.1,3.2-4.7c0-2.6-1.4-4.7-3.2-4.7v-0.4h51.2c2,0,3.5,2.3,3.5,5
							C58.7,52.4,57.1,54.7,55.2,54.7z M5.3,54.3h49.9c1.8,0,3.2-2.1,3.2-4.7c0-2.6-1.4-4.7-3.2-4.7H5.3c1.3,0.8,2.2,2.6,2.2,4.7
							S6.6,53.6,5.3,54.3z"/>
					</g>
				</g>
				<g>
					<g>
						<g>
							<path class="st5" d="M3.9,46.2c0.9,0,1.9,1.4,1.9,3.4c0,1.9-1,3.4-1.9,3.4S2,51.6,2,49.6C2.1,47.7,3.1,46.2,3.9,46.2
								 M3.9,44.8c-1.9,0-3.4,2.2-3.4,4.9s1.5,4.9,3.4,4.9s3.4-2.2,3.4-4.9C7.3,46.9,5.8,44.8,3.9,44.8L3.9,44.8z"/>
						</g>
					</g>
					<g>
						<g>
							<path class="st5" d="M3.9,54.7c-2,0-3.5-2.3-3.5-5c0-2.8,1.6-5,3.5-5c2,0,3.5,2.3,3.5,5C7.5,52.4,5.9,54.7,3.9,54.7z
								 M3.9,44.9c-1.8,0-3.2,2.1-3.2,4.7s1.4,4.7,3.2,4.7c1.7,0,3.2-2.1,3.2-4.7C7.1,47,5.7,44.9,3.9,44.9z"/>
						</g>
					</g>
				</g>
			</g>
			<g>
				<g>
					<path class="st5" d="M52.2,39.6c-4.3,0-6.5-1.6-8.6-3.1c-2-1.4-3.8-2.7-7.5-2.7s-5.6,1.3-7.5,2.7c-2.1,1.5-4.3,3.1-8.6,3.1
						s-6.5-1.6-8.6-3.1c-2-1.4-3.8-2.7-7.5-2.7c-0.5,0-0.9-0.4-0.9-0.9S3.4,32,3.9,32c4.3,0,6.5,1.6,8.6,3.1c2,1.4,3.8,2.7,7.5,2.7
						s5.6-1.3,7.5-2.7c2.1-1.5,4.3-3.1,8.6-3.1s6.5,1.6,8.6,3.1c2,1.4,3.8,2.7,7.5,2.7s5.6-1.3,7.5-2.7c2.1-1.5,4.3-3.1,8.6-3.1
						c0.5,0,0.9,0.4,0.9,0.9s-0.4,0.9-0.9,0.9c-3.7,0-5.6,1.3-7.5,2.7C58.7,38,56.5,39.6,52.2,39.6z"/>
				</g>
			</g>
			<g>
				<g>
					<path class="st6" d="M68.2,35.8"/>
				</g>
			</g>
		</g>
	</g>
</g>
<g id="Layer_7" class="st0">
	<g class="st4">
		<path class="st5" d="M41.6,37.5c0-4.4-3.6-8-8-8s-8,3.6-8,8s3.6,8,8,8S41.6,41.9,41.6,37.5z M42.3,55.5
			c9.1-2.2,15.4-10.3,15.4-19.6c0-11.1-9.1-20.2-20.2-20.2c-7.6,0-14.6,4.4-18,11.2h2.2c3.2-5.6,9.4-9.2,15.8-9.2
			c10.1,0,18.3,8.2,18.3,18.3c0,4.9-2,9.7-5.5,13.1L50,49.2H0.6v6.6h37.9C39.8,55.7,41.5,55.7,42.3,55.5z M37.2,5.1
			c-13.8,0-25.4,9.1-29.3,21.7h7.9c3.5-8.3,11.8-14.2,21.4-14.2C50,12.6,60.5,23,60.5,35.9S50.1,59.2,37.2,59.2h-20
			c5.4,4.6,12.4,7.4,20,7.4c17,0,30.7-13.8,30.7-30.7C68,18.9,54.2,5.1,37.2,5.1z M23.9,39.2c0-3.5-2.8-6.3-6.3-6.3h-17v12.5h17
			C21.1,45.5,23.9,42.7,23.9,39.2z"/>
	</g>
</g>
<g id="Layer_9" class="st0">
	<g class="st4">
		<path class="st7" d="M17,5.8c2.3-5.9,3.6,3.7,3.9,5.5c1.9,10.2,2,13,9.5,20.9C35,37,40.8,41.7,42.1,48.5c0,0.2,0.1,0.5,0.1,0.7
			C48.7,40.4,63,38.5,71,47.3c1.6,1.8-1.1,4.2-2.7,2.5c-7.6-8.3-22.5-4.5-25.4,6.1c-0.1,0.2-0.2,0.4-0.3,0.6
			c-0.1,3.6-0.7,7.2-2.3,9.7c-0.5,0.9-1.1,1.3-4.2,1.6C33,68,27.4,68,24.6,68c-2.8-0.1-2.9-0.2-2.9-0.7c-0.2-4.3,6.9-2.1,6.6-3.2
			c-0.6-1.6-5.1-5-5.5-7.9c-0.1-0.7,0-1.3-0.2-1.5c-0.2-0.3-3-1.4-3.7-2c-0.5-0.5-0.6-0.5-0.8,0.9c-0.7,4.2-1.2,8.3-1.9,12.5
			c-0.2,1.2-0.3,1.4-1.5,1.6c-1.2,0.1-3.5,0.1-4.6,0.1c-1.2,0-1.2-0.1-1.2-0.3c0-0.3,0.1-0.8,0.3-1.2c0.2-0.4,0.7-0.7,1.2-1
			c2.9-1.8,1.4-19.6,0.1-22.8c-1.6-4-2.5-8-2-12.3c0.3-2.7,2.1-5.3,2.1-7.6c0-2.5-2.8-2.2-4.6-2.7c-1.7-0.5-4.3-2.1-5.2-3.7
			s-0.5-3.1,1.5-3.5c1.4-0.3,3.8-0.3,5.2-0.3c2.6-0.1,2.5-0.9,4.7-1.6c1.3-0.4,2.8-0.1,3.5-1.3C16.2,8.3,16.6,6.9,17,5.8L17,5.8z"/>
	</g>
</g>
<g id="Layer_10">
	<g>
		<path class="st8" d="M46.3,17.9c1.5,0,2.2-1.8,1.2-2.9L37.3,6.6c-0.7-0.7-1.7-0.7-2.4,0l-10.2,8.5c-1.1,1.1-0.3,2.9,1.2,2.9h7.2
			v19.4L7.4,60.2c-1.2,1.1-1.3,3-0.2,4.2c0.6,0.7,1.4,1,2.2,1c0.7,0,1.4-0.2,2-0.7L38.1,41c0.6-0.6,1-1.4,1-2.2V17.9H46.3z"/>
		<path class="st8" d="M64.7,60.1L46.9,45.3c-1.3-1.1-3.1-0.9-4.2,0.4c-1.1,1.3-0.9,3.1,0.4,4.2l17.8,14.8c0.5,0.5,1.2,0.7,1.9,0.7
			c0.9,0,1.7-0.4,2.3-1.1C66.1,63,65.9,61.2,64.7,60.1z"/>
	</g>
</g>
<g id="Layer_11" class="st0">
	<path class="st9" d="M67.7,26.8v-5.9L35.8,6.1L3.9,20.9v5.9l6.4,3l-6.4,3v5.9l6.4,3l-6.4,3v5.9l31.9,14.8l31.9-14.8v-5.9l-6.4-3
		l6.4-3v-5.9l-6.4-3L67.7,26.8z M35.8,59.5L10.5,47.7l6.3-2.9l19,8.8l19-8.8l6.3,2.9L35.8,59.5z M23.3,41.7l6.3-2.9l6.2-2.9l6.2,2.9
		l6.3,2.9l-12.4,5.8L23.3,41.7z M54.8,38.7l-6.3-2.9l-6.5-3l-6.2-2.9l-6.2,2.9l-6.5,3l-6.4,2.9l-6.3-2.9l6.3-2.9l6.5-3l12.5-5.8
		l12.5,5.8l6.5,3l6.3,2.9L54.8,38.7z M35.8,18l-19,8.8l-6.3-2.9l25.3-11.7l25.3,11.7l-6.3,2.9L35.8,18z"/>
</g>
<g id="Layer_12" class="st0">
	<g class="st4">
		<path class="st10" d="M35.7,6.6L10.5,21.1v29.2l25.3,14.6L61,50.3V21.1L35.7,6.6z M58.6,21.8l-16.3,9L35.7,27l-6.6,3.8l-16.2-9
			L35.7,8.6L58.6,21.8z M35.7,42.1L30.3,39l5.4-2.9L41,39L35.7,42.1z M41.7,38l-5.4-2.9v-6.5l5.4,3.1V38z M35.1,35.2L29.7,38v-6.3
			l5.4-3.1C35.1,28.6,35.1,35.2,35.1,35.2z M12.2,22.8l16.3,9v7.6l0.3,0.2l0,0l6.3,3.6l0.1,19.4l-23-13.2
			C12.2,49.4,12.2,22.8,12.2,22.8z M36.3,62.5l-0.1-19.4l6.3-3.6l0,0l0.3-0.2v-7.6l16.4-9v26.5L36.3,62.5z"/>
		<path class="st10" d="M35.7,65.6l-25.8-15V20.8l0.3-0.2L35.7,5.9l25.9,14.9v29.9l-0.3,0.2L35.7,65.6z M11.1,49.9l24.6,14.2
			l24.6-14.2V21.5L35.7,7.3L11.1,21.5V49.9z M35.8,63.5L35.8,63.5L35.8,63.5L35.8,63.5L11.6,49.7v-28l0,0L35.7,7.9l24.1,13.9l0,0
			v27.9l-0.3,0.2L35.8,63.5z M12.8,49l21.8,12.5l-0.1-18l-6.6-3.8v-7.6l-15.1-8.3C12.8,23.8,12.8,49,12.8,49z M36.8,43.5l0.1,18
			L58.6,49V23.8l-15.2,8.3v7.6L42.9,40L36.8,43.5z M31.5,39.1l4.1,2.4l4.1-2.4l-4.1-2.2L31.5,39.1z M36.9,34.8l4.2,2.2v-4.9
			l-4.2-2.4V34.8z M30.3,32.1V37l4.2-2.2v-5.1L30.3,32.1z M35.7,35.5L35.7,35.5v-7.8V35.5z M35.7,26.3l6.6,3.8l15.1-8.3L35.7,9.3
			L14.1,21.8l15,8.3L35.7,26.3z"/>
	</g>
</g>
<g id="Layer_13">
</g>
</svg>
