<?xml version="1.0" encoding="utf-8"?>
<!-- Generator: Adobe Illustrator 27.1.1, SVG Export Plug-In . SVG Version: 6.00 Build 0)  -->
<svg version="1.1" id="CBIIT_Cancer_Data_Service" xmlns="http://www.w3.org/2000/svg" xmlns:xlink="http://www.w3.org/1999/xlink"
	 x="0px" y="0px" viewBox="0 0 360.3 58.7" style="enable-background:new 0 0 360.3 58.7;" xml:space="preserve">
<style type="text/css">
	.st0{fill:#606060;}
	.st1{fill:#BB0E3D;}
	.st2{fill:#BA1F40;}
	.st3{fill:#606061;}
	.st4{fill:#FFFFFF;}
</style>
<g id="Cancer_Data_Service">
	<path class="st0" d="M111,46.4c1.6,0,2.9-0.7,3.9-2l2.1,2.1c-1.7,1.8-3.7,2.8-5.9,2.8c-2.2,0-4.1-0.7-5.6-2.1
		c-1.6-1.4-2.2-3.3-2.2-5.4c0-2.2,0.8-3.9,2.2-5.5c1.4-1.4,3.3-2.2,5.5-2.2c2.4,0,4.5,0.9,6,2.8l-2.1,2.4c-1-1.3-2.4-2-3.8-2
		c-1.2,0-2.2,0.4-3.1,1.2c-0.9,0.8-1.3,1.8-1.3,3.3c0,1.4,0.4,2.5,1.2,3.3C108.8,46,109.8,46.4,111,46.4z"/>
	<path class="st0" d="M128.7,49.4h-3v-1.3c-0.8,1-1.8,1.6-3,1.6s-2.2-0.4-3-1c-0.8-0.7-1.2-1.6-1.2-2.8c0-1.2,0.4-2,1.3-2.6
		c0.8-0.5,2-0.9,3.4-0.9h2.4l0,0c0-1.2-0.7-1.8-2-1.8c-0.5,0-1.2,0.1-1.7,0.3c-0.7,0.3-1.2,0.5-1.6,0.8l-1.4-2.1
		c1.4-1,3.1-1.6,5.1-1.6c1.3,0,2.5,0.4,3.4,1c0.9,0.7,1.3,1.7,1.3,3.3C128.7,42.2,128.7,49.4,128.7,49.4z M125.6,45.1v-0.5h-2
		c-1.3,0-1.8,0.4-1.8,1.2c0,0.4,0.1,0.7,0.4,0.9c0.3,0.3,0.8,0.3,1.3,0.3s1-0.1,1.4-0.5C125.3,46.2,125.6,45.6,125.6,45.1z"/>
	<path class="st0" d="M134.7,43.2v6.3h-3.1V38.2h3.1v1.3c0.9-0.9,2-1.4,3.1-1.4c1.2,0,2.2,0.4,3,1.3c0.8,0.8,1.2,2,1.2,3.4v6.8h-3.1
		v-6.4c0-1.7-0.7-2.6-2-2.6c-0.7,0-1.2,0.3-1.7,0.7C134.7,41.6,134.7,42.2,134.7,43.2z"/>
	<path class="st0" d="M150.5,46.8c1,0,2-0.5,2.9-1.6l1.8,2.1c-1.4,1.6-3,2.2-4.7,2.2s-3.1-0.5-4.3-1.6c-1.2-1-1.7-2.5-1.7-4.2
		s0.7-3.1,1.8-4.2s2.6-1.6,4.2-1.6c0.8,0,1.6,0.1,2.5,0.5c0.8,0.4,1.6,0.8,2.2,1.4l-1.6,2.1c-0.4-0.4-0.8-0.8-1.3-1s-1-0.4-1.6-0.4
		c-0.8,0-1.6,0.3-2.1,0.8c-0.7,0.5-0.9,1.3-0.9,2.2c0,0.9,0.3,1.7,0.9,2.2C148.9,46.6,149.7,46.8,150.5,46.8z"/>
	<path class="st0" d="M167,47.7c-1.3,1.2-2.8,1.8-4.5,1.8c-1.7,0-3.1-0.5-4.2-1.6c-1.2-1-1.7-2.5-1.7-4.2c0-1.8,0.5-3.1,1.7-4.2
		s2.5-1.6,4.1-1.6c1.6,0,2.9,0.5,3.9,1.4c1,0.9,1.6,2.2,1.6,3.8V45h-8.3c0.1,0.7,0.4,1.2,0.9,1.6c0.5,0.4,1.2,0.5,1.8,0.5
		c1,0,2-0.4,2.8-1L167,47.7z M164,41.1c-0.4-0.4-0.9-0.5-1.6-0.5c-0.7,0-1.2,0.1-1.7,0.5c-0.5,0.4-0.8,0.9-0.9,1.6h5
		C164.7,42,164.4,41.4,164,41.1z"/>
	<path class="st0" d="M176.2,40.9c-0.9,0-1.6,0.4-2.1,1c-0.5,0.7-0.7,1.6-0.7,2.6v4.9h-3.1V38.2h3.1v1.4c0.4-0.5,0.9-0.9,1.6-1.2
		c0.7-0.3,1.2-0.5,1.8-0.5v3H176.2z"/>
	<path class="st0" d="M195.9,36.6c1.4,1.3,2.1,3,2.1,5.4c0,2.2-0.7,4.1-2.1,5.4c-1.3,1.3-3.4,2-6.3,2h-5V34.8h5.2
		C192.5,34.8,194.4,35.4,195.9,36.6z M193.5,45.4c0.8-0.8,1.2-1.8,1.2-3.3c0-1.4-0.4-2.5-1.2-3.3c-0.8-0.8-2.1-1.2-3.7-1.2H188v8.9
		h2.1C191.5,46.4,192.7,46.2,193.5,45.4z"/>
	<path class="st0" d="M209.9,49.4h-3v-1.3c-0.8,1-1.8,1.6-3,1.6c-1.2,0-2.2-0.4-3-1c-0.8-0.7-1.2-1.6-1.2-2.8c0-1.2,0.4-2,1.3-2.6
		c0.8-0.5,2-0.9,3.4-0.9h2.4l0,0c0-1.2-0.7-1.8-2-1.8c-0.5,0-1.2,0.1-1.7,0.3c-0.7,0.3-1.2,0.5-1.6,0.8l-1.4-2.1
		c1.4-1,3.1-1.6,5.1-1.6c1.3,0,2.5,0.4,3.4,1c0.9,0.7,1.3,1.7,1.3,3.3V49.4z M206.8,45.1v-0.5h-2c-1.3,0-1.8,0.4-1.8,1.2
		c0,0.4,0.1,0.7,0.4,0.9c0.3,0.3,0.8,0.3,1.3,0.3c0.5,0,1-0.1,1.4-0.5C206.6,46.2,206.8,45.6,206.8,45.1z"/>
	<path class="st0" d="M216.5,40.4v5.1c0,0.4,0.1,0.8,0.4,1c0.3,0.3,0.5,0.4,0.8,0.4c0.5,0,1-0.3,1.4-0.8l1.2,2.2
		c-0.9,0.9-2,1.3-3.1,1.3c-1,0-2-0.4-2.8-1c-0.8-0.7-1.2-1.7-1.2-2.9v-5.2h-1.3v-2.2h1.3v-3.4h3.1v3.4h2.8v2.2h-2.6V40.4z"/>
	<path class="st0" d="M231.6,49.4h-3v-1.3c-0.8,1-1.8,1.6-3,1.6c-1.2,0-2.2-0.4-3-1c-0.8-0.7-1.2-1.6-1.2-2.8c0-1.2,0.4-2,1.3-2.6
		c0.8-0.5,2-0.9,3.4-0.9h2.4l0,0c0-1.2-0.7-1.8-2-1.8c-0.5,0-1.2,0.1-1.7,0.3c-0.7,0.3-1.2,0.5-1.6,0.8l-1.4-2.1
		c1.4-1,3.1-1.6,5.1-1.6c1.3,0,2.5,0.4,3.4,1c0.9,0.7,1.3,1.7,1.3,3.3V49.4z M228.4,45.1v-0.5h-2c-1.3,0-1.8,0.4-1.8,1.2
		c0,0.4,0.1,0.7,0.4,0.9c0.3,0.3,0.8,0.3,1.3,0.3c0.5,0,1-0.1,1.4-0.5C228.1,46.2,228.4,45.6,228.4,45.1z"/>
	<path class="st0" d="M243.7,37.6c-0.3,0.3-0.5,0.7-0.5,1c0,0.4,0.1,0.8,0.5,1c0.4,0.3,1.3,0.5,2.6,0.9c1.4,0.4,2.5,0.9,3.3,1.6
		c0.8,0.7,1.2,1.7,1.2,3s-0.5,2.4-1.4,3.1c-0.9,0.8-2.2,1.2-3.9,1.2c-2.4,0-4.5-0.9-6.3-2.6l2-2.4c1.6,1.4,3,2.1,4.3,2.1
		c0.7,0,1-0.1,1.4-0.4c0.4-0.3,0.5-0.7,0.5-1s-0.1-0.8-0.5-1c-0.4-0.3-1-0.5-2.1-0.8c-1.7-0.4-3-0.9-3.8-1.6c-0.8-0.7-1.2-1.7-1.2-3
		c0-1.4,0.5-2.5,1.4-3.3c0.9-0.8,2.2-1.2,3.8-1.2c0.9,0,2,0.1,2.9,0.5s1.8,0.8,2.6,1.4l-1.7,2.4c-1.3-0.9-2.6-1.4-3.9-1.4
		C244.4,37.2,244,37.4,243.7,37.6z"/>
	<path class="st0" d="M263.2,47.7c-1.3,1.2-2.8,1.8-4.5,1.8c-1.7,0-3.1-0.5-4.2-1.6c-1.2-1-1.7-2.5-1.7-4.2c0-1.8,0.5-3.1,1.7-4.2
		s2.5-1.6,4.1-1.6c1.6,0,2.9,0.5,3.9,1.4c1,0.9,1.6,2.2,1.6,3.8V45h-8.3c0.1,0.7,0.4,1.2,0.9,1.6c0.5,0.4,1.2,0.5,1.8,0.5
		c1,0,2-0.4,2.8-1L263.2,47.7z M260.1,41.1c-0.4-0.4-0.9-0.5-1.6-0.5s-1.2,0.1-1.7,0.5c-0.5,0.4-0.8,0.9-0.9,1.6h5
		C260.8,42,260.5,41.4,260.1,41.1z"/>
	<path class="st0" d="M272.2,40.9c-0.9,0-1.6,0.4-2.1,1c-0.5,0.7-0.7,1.6-0.7,2.6v4.9h-3.1V38.2h3.1v1.4c0.4-0.5,0.9-0.9,1.6-1.2
		c0.7-0.3,1.2-0.5,1.8-0.5v3H272.2z"/>
	<path class="st0" d="M278,49.4l-4.5-11.3h3.3l2.8,7.1l2.8-7.1h3.3l-4.5,11.3H278z"/>
	<path class="st0" d="M287.4,36.7c-0.4-0.4-0.5-0.8-0.5-1.3c0-0.5,0.1-0.9,0.5-1.3c0.4-0.4,0.8-0.5,1.3-0.5c0.5,0,0.9,0.1,1.3,0.5
		c0.4,0.4,0.5,0.8,0.5,1.3c0,0.5-0.1,0.9-0.5,1.3c-0.4,0.4-0.8,0.5-1.3,0.5C288.2,37.2,287.8,37,287.4,36.7z M290.3,49.4h-3.1V38.2
		h3.1V49.4z"/>
	<path class="st0" d="M298.7,46.8c1,0,2-0.5,2.9-1.6l1.8,2.1c-1.4,1.6-3,2.2-4.7,2.2s-3.1-0.5-4.3-1.6c-1.2-1-1.7-2.5-1.7-4.2
		s0.7-3.1,1.8-4.2s2.6-1.6,4.2-1.6c0.8,0,1.6,0.1,2.5,0.5c0.8,0.4,1.6,0.8,2.2,1.4l-1.6,2.1c-0.4-0.4-0.8-0.8-1.3-1
		c-0.5-0.3-1-0.4-1.6-0.4c-0.8,0-1.6,0.3-2.1,0.8c-0.7,0.5-0.9,1.3-0.9,2.2c0,0.9,0.3,1.7,0.9,2.2C297.3,46.6,297.9,46.8,298.7,46.8
		z"/>
	<path class="st0" d="M315.4,47.7c-1.3,1.2-2.8,1.8-4.5,1.8s-3.1-0.5-4.2-1.6c-1.2-1-1.7-2.5-1.7-4.2c0-1.8,0.5-3.1,1.7-4.2
		c1.2-1,2.5-1.6,4.1-1.6c1.6,0,2.9,0.5,3.9,1.4c1,0.9,1.6,2.2,1.6,3.8V45H308c0.1,0.7,0.4,1.2,0.9,1.6c0.5,0.4,1.2,0.5,1.8,0.5
		c1,0,2-0.4,2.8-1L315.4,47.7z M312.4,41.1c-0.4-0.4-0.9-0.5-1.6-0.5c-0.7,0-1.2,0.1-1.7,0.5c-0.5,0.4-0.8,0.9-0.9,1.6h5
		C313,42,312.7,41.4,312.4,41.1z"/>
</g>
<g id="NCI_00000070092132803313263510000000782199851214801833_">
	<path class="st1" d="M112.7,10.1h2.5v11.4h-2.5l-5.4-7.1v7.1h-2.5V10.1h2.4l5.6,7.3v-7.3H112.7z"/>
	<path class="st1" d="M126.2,21.5l-1-2.5h-4.7l-1,2.5h-2.8l5-11.4h2.5l5,11.4H126.2L126.2,21.5z M122.8,13.5l-1.4,3.3h2.9
		L122.8,13.5z"/>
	<path class="st1" d="M134.2,12.3v9.2h-2.5v-9.2h-3.3v-2.2h9.1v2.2H134.2z"/>
	<path class="st1" d="M139.3,10.1h2.5v11.4h-2.5V10.1z"/>
	<path class="st1" d="M154.3,19.9c-1.2,1.2-2.6,1.7-4.2,1.7c-1.6,0-3.1-0.5-4.2-1.7c-1.2-1.2-1.7-2.5-1.7-4.2s0.5-3,1.7-4.2
		s2.6-1.7,4.2-1.7c1.6,0,3.1,0.5,4.2,1.7c1.2,1.2,1.7,2.5,1.7,4.2S155.5,18.8,154.3,19.9z M153.4,15.7c0-1-0.3-1.8-0.9-2.6
		c-0.7-0.7-1.4-1-2.4-1s-1.7,0.4-2.4,1s-0.9,1.6-0.9,2.6s0.3,1.8,0.9,2.6c0.7,0.7,1.4,1,2.4,1s1.7-0.4,2.4-1
		C153.1,17.6,153.4,16.7,153.4,15.7z"/>
	<path class="st1" d="M166.1,10.1h2.5v11.4h-2.5l-5.4-7.1v7.1h-2.5V10.1h2.4l5.6,7.3v-7.3H166.1z"/>
	<path class="st1" d="M179.6,21.5l-1-2.5h-4.9l-1,2.5h-2.8l5-11.4h2.5l5,11.4H179.6L179.6,21.5z M176.2,13.5l-1.4,3.3h2.9
		L176.2,13.5z"/>
	<path class="st1" d="M183.7,21.5V10.1h2.5v9.2h4.9v2.2L183.7,21.5L183.7,21.5z"/>
	<path class="st1" d="M202.4,19.1c1.3,0,2.2-0.5,3-1.4l1.6,1.7c-1.3,1.4-2.8,2.2-4.6,2.2s-3.1-0.5-4.3-1.7c-1.2-1-1.7-2.5-1.7-4.2
		s0.5-3.1,1.7-4.2c1.2-1.2,2.6-1.7,4.2-1.7c1.8,0,3.4,0.7,4.7,2.1l-1.6,1.8c-0.8-1-1.8-1.4-3-1.4c-0.9,0-1.8,0.3-2.5,0.9
		c-0.7,0.7-1,1.4-1,2.5s0.3,2,0.9,2.5C200.7,18.9,201.5,19.1,202.4,19.1z"/>
	<path class="st1" d="M217.1,21.5l-1-2.5h-4.7l-1,2.5h-2.8l5-11.4h2.5l5,11.4H217.1L217.1,21.5z M213.7,13.5l-1.4,3.3h2.9
		L213.7,13.5z"/>
	<path class="st1" d="M229.2,10.1h2.5v11.4h-2.5l-5.4-7.1v7.1h-2.5V10.1h2.4l5.6,7.3v-7.3H229.2z"/>
	<path class="st1" d="M239.8,19.1c1.3,0,2.2-0.5,3-1.4l1.6,1.7c-1.3,1.4-2.8,2.2-4.6,2.2c-1.7,0-3.1-0.5-4.3-1.7
		c-1.2-1-1.7-2.5-1.7-4.2s0.5-3.1,1.7-4.2c1.2-1.2,2.6-1.7,4.2-1.7c1.8,0,3.4,0.7,4.7,2.1l-1.6,1.8c-0.8-1-1.8-1.4-3-1.4
		c-0.9,0-1.8,0.3-2.5,0.9c-0.7,0.7-1,1.4-1,2.5s0.3,2,0.9,2.5C238.1,18.9,238.9,19.1,239.8,19.1z"/>
	<path class="st1" d="M254.6,10.1v2.2H249v2.4h5.1v2.2H249v2.4h5.9v2.2h-8.4V10.1C246.5,10.1,254.6,10.1,254.6,10.1z"/>
	<path class="st1" d="M266.3,13.9c0,1.8-0.8,3-2.2,3.5l2.9,4.1h-3.1l-2.5-3.7h-1.7v3.7h-2.5V10.1h4.3c1.8,0,3,0.3,3.8,0.9
		C266,11.5,266.3,12.5,266.3,13.9z M263.3,15.2c0.3-0.3,0.5-0.8,0.5-1.3c0-0.7-0.1-1-0.5-1.3c-0.3-0.3-0.9-0.4-1.7-0.4h-2v3.4h1.8
		C262.4,15.6,263,15.5,263.3,15.2z"/>
	<path class="st1" d="M273.3,10.1h2.5v11.4h-2.5V10.1z"/>
	<path class="st1" d="M286.6,10.1h2.5v11.4h-2.5l-5.4-7.1v7.1h-2.6V10.1h2.4l5.6,7.3V10.1z"/>
	<path class="st1" d="M294.6,12.3c-0.3,0.3-0.4,0.5-0.4,0.8c0,0.3,0.1,0.7,0.4,0.8c0.3,0.1,1,0.4,2.1,0.7c1,0.3,2,0.7,2.5,1.2
		c0.7,0.5,0.9,1.3,0.9,2.4c0,1-0.4,1.8-1.2,2.5s-1.8,0.9-3,0.9c-1.8,0-3.4-0.7-4.9-2l1.6-1.8c1.2,1,2.4,1.6,3.4,1.6
		c0.5,0,0.8-0.1,1-0.3c0.3-0.3,0.4-0.5,0.4-0.8c0-0.4-0.1-0.7-0.4-0.8c-0.3-0.3-0.8-0.4-1.7-0.7c-1.3-0.3-2.4-0.8-2.9-1.2
		s-0.9-1.3-0.9-2.4s0.4-2,1.2-2.5c0.8-0.5,1.7-0.9,2.9-0.9c0.8,0,1.6,0.1,2.2,0.4c0.8,0.3,1.4,0.7,2,1l-1.3,1.8c-1-0.8-2-1.2-3-1.2
		C295.2,12.1,294.9,12.2,294.6,12.3z"/>
	<path class="st1" d="M307.1,12.3v9.2h-2.5v-9.2h-3.3v-2.2h9.1v2.2H307.1z"/>
	<path class="st1" d="M312.2,10.1h2.5v11.4h-2.5V10.1z"/>
	<path class="st1" d="M322.3,12.3v9.2h-2.5v-9.2h-3.3v-2.2h9.1v2.2H322.3z"/>
	<path class="st1" d="M330.5,18.5c0.4,0.5,1,0.8,1.7,0.8s1.3-0.3,1.7-0.8c0.4-0.5,0.7-1.3,0.7-2.1v-6.3h2.5v6.4
		c0,1.7-0.4,2.9-1.3,3.8c-0.9,0.9-2.1,1.3-3.5,1.3c-1.4,0-2.6-0.4-3.5-1.3s-1.4-2.1-1.4-3.8v-6.4h2.5v6.3
		C329.8,17.3,330.1,18,330.5,18.5z"/>
	<path class="st1" d="M344.5,12.3v9.2H342v-9.2h-3.3v-2.2h9.1v2.2H344.5z"/>
	<path class="st1" d="M357.9,10.1v2.2h-5.8v2.4h5.1v2.2h-5.1v2.4h5.9v2.2h-8.4V10.1C349.6,10.1,357.9,10.1,357.9,10.1z"/>
</g>
<g id="NIH_Luggage_Tag_00000099630773664447301570000014605425803882886823_">
	<path class="st2" d="M77.6,4.3c-1.2-1.7-3.1-2.9-5.1-2.9h-4.7l15.7,27.8L67.7,57.1h4.7c2.2,0,4.2-1.2,5.1-2.9l13.8-24.9L77.6,4.3z"
		/>
	<path class="st3" d="M79.1,29.2L63.8,1.4H8c-3.5,0-6,2.8-6,6v43.7c0,3.3,2.6,6,6,6h55.7L79.1,29.2z"/>
	<rect x="34.9" y="16.9" class="st4" width="4.2" height="24.7"/>
	<polygon class="st4" points="26.7,16.9 26.7,34.9 15.2,16.9 11.3,16.9 11.3,41.7 15.2,41.7 15.2,23.5 26.7,41.7 30.7,41.7 
		30.7,16.9 	"/>
	<polygon class="st4" points="58.5,16.9 58.5,27.1 47.1,27.1 47.1,16.9 43.1,16.9 43.1,41.7 47.1,41.7 47.1,31.3 58.5,31.3 
		58.5,41.7 62.7,41.7 62.7,16.9 	"/>
</g>
</svg>
